<svg xmlns="http://www.w3.org/2000/svg" viewBox="0 0 512 512">
  <defs>
    <linearGradient id="bannerGrad" x1="0%" y1="100%" x2="100%" y2="0%">
      <stop offset="0%" stop-color="#f43f5e"/>
      <stop offset="50%" stop-color="#ec4899"/>
      <stop offset="100%" stop-color="#fb923c"/>
    </linearGradient>
  </defs>
  <rect width="512" height="512" rx="120" fill="url(#bannerGrad)"/>
  <path d="M360 250c-15-80-60-140-104-190-5-5-14-3-16 4-10 45-20 100-50 140-35 45-75 65-90 120-15 55 25 136 105 136 100 0 180-85 155-210z" fill="#ffffff"/>
  <path d="M280 340c-10-30-30-60-50-80-3-3-8-1-9 3-5 20-10 45-25 60-15 15-25 25-30 45-5 20 10 52 44 52 40 0 80-40 70-80z" fill="#ffffff" opacity="0.3"/>
</svg>
